<svg xmlns="http://www.w3.org/2000/svg" xmlns:xlink="http://www.w3.org/1999/xlink" contentStyleType="text/css" data-diagram-type="SEQUENCE" height="750px" preserveAspectRatio="none" style="width:1435px;height:750px;background:#F8FAFC;" version="1.1" viewBox="0 0 1435 750" width="1435px" zoomAndPan="magnify"><?plantuml $version$?><defs/><g><rect fill="#F8FAFC" height="750" style="stroke:none;stroke-width:1;" width="1435" x="0" y="0"/><g class="title" data-source-line="17"><text fill="#000000" font-family="DejaVu Sans" font-size="14" font-weight="700" lengthAdjust="spacing" textLength="415.8711" x="506.3223" y="27.9951">Immutable libmorphism release and public readback</text></g><g><title>Local release gate</title><rect fill="#F1F5F9" height="71.2656" style="stroke:#181818;stroke-width:1;" width="10" x="295.3003" y="149.7266"/></g><g><title>GitHub Actions</title><rect fill="#F1F5F9" height="100.3984" style="stroke:#181818;stroke-width:1;" width="10" x="796.2651" y="279.2578"/></g><rect fill="none" height="206.7344" style="stroke:#000000;stroke-width:1.5;" width="1409.5156" x="10" y="394.6563"/><g class="participant-lifeline" data-entity-uid="part1" data-qualified-name="Maintainer" data-source-line="19" id="part1-lifeline"><g><title>Maintainer</title><rect fill="#000000" fill-opacity="0.00000" height="550.0625" width="8" x="56.3105" y="118.5938"/><line style="stroke:#64748B;stroke-width:0.5;stroke-dasharray:5,5;" x1="60" x2="60" y1="118.5938" y2="668.6563"/></g></g><g class="participant-lifeline" data-entity-uid="part2" data-qualified-name="Gate" data-source-line="20" id="part2-lifeline"><g><title>Local release gate</title><rect fill="#000000" fill-opacity="0.00000" height="550.0625" width="8" x="296.3003" y="118.5938"/><line style="stroke:#64748B;stroke-width:0.5;stroke-dasharray:5,5;" x1="300.1211" x2="300.1211" y1="118.5938" y2="668.6563"/></g></g><g class="participant-lifeline" data-entity-uid="part3" data-qualified-name="Tag" data-source-line="21" id="part3-lifeline"><g><title>Exact Git tag</title><rect fill="#000000" fill-opacity="0.00000" height="550.0625" width="8" x="675.6001" y="118.5938"/><line style="stroke:#64748B;stroke-width:0.5;stroke-dasharray:5,5;" x1="679.1104" x2="679.1104" y1="118.5938" y2="668.6563"/></g></g><g class="participant-lifeline" data-entity-uid="part4" data-qualified-name="CI" data-source-line="22" id="part4-lifeline"><g><title>GitHub Actions</title><rect fill="#000000" fill-opacity="0.00000" height="550.0625" width="8" x="797.2651" y="118.5938"/><line style="stroke:#64748B;stroke-width:0.5;stroke-dasharray:5,5;" x1="801.0898" x2="801.0898" y1="118.5938" y2="668.6563"/></g></g><g class="participant-lifeline" data-entity-uid="part5" data-qualified-name="Crate" data-source-line="23" id="part5-lifeline"><g><title>Checksummed crate</title><rect fill="#000000" fill-opacity="0.00000" height="550.0625" width="8" x="1113.5898" y="118.5938"/><line style="stroke:#64748B;stroke-width:0.5;stroke-dasharray:5,5;" x1="1117.293" x2="1117.293" y1="118.5938" y2="668.6563"/></g></g><g class="participant-lifeline" data-entity-uid="part6" data-qualified-name="GitHub" data-source-line="24" id="part6-lifeline"><g><title>GitHub Release</title><rect fill="#000000" fill-opacity="0.00000" height="550.0625" width="8" x="1260.0342" y="118.5938"/><line style="stroke:#64748B;stroke-width:0.5;stroke-dasharray:5,5;" x1="1263.8867" x2="1263.8867" y1="118.5938" y2="668.6563"/></g></g><g class="participant-lifeline" data-entity-uid="part7" data-qualified-name="Registry" data-source-line="25" id="part7-lifeline"><g><title>crates.io</title><rect fill="#000000" fill-opacity="0.00000" height="550.0625" width="8" x="1368.3486" y="118.5938"/><line style="stroke:#64748B;stroke-width:0.5;stroke-dasharray:5,5;" x1="1372.1816" x2="1372.1816" y1="118.5938" y2="668.6563"/></g></g><g class="participant participant-head" data-entity-uid="part1" data-qualified-name="Maintainer" data-source-line="19" id="part1-head"><text fill="#000000" font-family="DejaVu Sans" font-size="14" lengthAdjust="spacing" textLength="74.6211" x="20" y="115.292">Maintainer</text><ellipse cx="60.3105" cy="50.7969" fill="#DBEAFE" rx="8" ry="8" style="stroke:#1D4ED8;stroke-width:0.5;"/><path d="M60.3105,58.7969 L60.3105,85.7969 M47.3105,66.7969 L73.3105,66.7969 M60.3105,85.7969 L47.3105,100.7969 M60.3105,85.7969 L73.3105,100.7969" fill="none" style="stroke:#1D4ED8;stroke-width:0.5;"/></g><g class="participant participant-tail" data-entity-uid="part1" data-qualified-name="Maintainer" data-source-line="19" id="part1-tail"><text fill="#000000" font-family="DejaVu Sans" font-size="14" lengthAdjust="spacing" textLength="74.6211" x="20" y="680.6514">Maintainer</text><ellipse cx="60.3105" cy="692.4531" fill="#DBEAFE" rx="8" ry="8" style="stroke:#1D4ED8;stroke-width:0.5;"/><path d="M60.3105,700.4531 L60.3105,727.4531 M47.3105,708.4531 L73.3105,708.4531 M60.3105,727.4531 L47.3105,742.4531 M60.3105,727.4531 L73.3105,742.4531" fill="none" style="stroke:#1D4ED8;stroke-width:0.5;"/></g><g class="participant participant-head" data-entity-uid="part2" data-qualified-name="Gate" data-source-line="20" id="part2-head"><rect fill="#E2E8F0" height="30.2969" rx="2.5" ry="2.5" style="stroke:#475569;stroke-width:0.5;" width="142.3584" x="229.1211" y="87.2969"/><text fill="#000000" font-family="DejaVu Sans" font-size="14" lengthAdjust="spacing" textLength="128.3584" x="236.1211" y="107.292">Local release gate</text></g><g class="participant participant-tail" data-entity-uid="part2" data-qualified-name="Gate" data-source-line="20" id="part2-tail"><rect fill="#E2E8F0" height="30.2969" rx="2.5" ry="2.5" style="stroke:#475569;stroke-width:0.5;" width="142.3584" x="229.1211" y="667.6563"/><text fill="#000000" font-family="DejaVu Sans" font-size="14" lengthAdjust="spacing" textLength="128.3584" x="236.1211" y="687.6514">Local release gate</text></g><g class="participant participant-head" data-entity-uid="part3" data-qualified-name="Tag" data-source-line="21" id="part3-head"><rect fill="#E2E8F0" height="30.2969" rx="2.5" ry="2.5" style="stroke:#475569;stroke-width:0.5;" width="104.9795" x="627.1104" y="87.2969"/><text fill="#000000" font-family="DejaVu Sans" font-size="14" lengthAdjust="spacing" textLength="90.9795" x="634.1104" y="107.292">Exact Git tag</text></g><g class="participant participant-tail" data-entity-uid="part3" data-qualified-name="Tag" data-source-line="21" id="part3-tail"><rect fill="#E2E8F0" height="30.2969" rx="2.5" ry="2.5" style="stroke:#475569;stroke-width:0.5;" width="104.9795" x="627.1104" y="667.6563"/><text fill="#000000" font-family="DejaVu Sans" font-size="14" lengthAdjust="spacing" textLength="90.9795" x="634.1104" y="687.6514">Exact Git tag</text></g><g class="participant participant-head" data-entity-uid="part4" data-qualified-name="CI" data-source-line="22" id="part4-head"><rect fill="#E2E8F0" height="30.2969" rx="2.5" ry="2.5" style="stroke:#475569;stroke-width:0.5;" width="118.3506" x="742.0898" y="87.2969"/><text fill="#000000" font-family="DejaVu Sans" font-size="14" lengthAdjust="spacing" textLength="104.3506" x="749.0898" y="107.292">GitHub Actions</text></g><g class="participant participant-tail" data-entity-uid="part4" data-qualified-name="CI" data-source-line="22" id="part4-tail"><rect fill="#E2E8F0" height="30.2969" rx="2.5" ry="2.5" style="stroke:#475569;stroke-width:0.5;" width="118.3506" x="742.0898" y="667.6563"/><text fill="#000000" font-family="DejaVu Sans" font-size="14" lengthAdjust="spacing" textLength="104.3506" x="749.0898" y="687.6514">GitHub Actions</text></g><g class="participant participant-head" data-entity-uid="part5" data-qualified-name="Crate" data-source-line="23" id="part5-head"><text fill="#000000" font-family="DejaVu Sans" font-size="14" lengthAdjust="spacing" textLength="144.5938" x="1042.293" y="115.292">Checksummed crate</text><path d="M1099.5898,66.2969 C1099.5898,56.2969 1117.5898,56.2969 1117.5898,56.2969 C1117.5898,56.2969 1135.5898,56.2969 1135.5898,66.2969 L1135.5898,92.2969 C1135.5898,102.2969 1117.5898,102.2969 1117.5898,102.2969 C1117.5898,102.2969 1099.5898,102.2969 1099.5898,92.2969 L1099.5898,66.2969" fill="#E2E2F0" style="stroke:#181818;stroke-width:0.5;"/><path d="M1099.5898,66.2969 C1099.5898,76.2969 1117.5898,76.2969 1117.5898,76.2969 C1117.5898,76.2969 1135.5898,76.2969 1135.5898,66.2969" fill="none" style="stroke:#181818;stroke-width:0.5;"/></g><g class="participant participant-tail" data-entity-uid="part5" data-qualified-name="Crate" data-source-line="23" id="part5-tail"><text fill="#000000" font-family="DejaVu Sans" font-size="14" lengthAdjust="spacing" textLength="144.5938" x="1042.293" y="680.6514">Checksummed crate</text><path d="M1099.5898,693.9531 C1099.5898,683.9531 1117.5898,683.9531 1117.5898,683.9531 C1117.5898,683.9531 1135.5898,683.9531 1135.5898,693.9531 L1135.5898,719.9531 C1135.5898,729.9531 1117.5898,729.9531 1117.5898,729.9531 C1117.5898,729.9531 1099.5898,729.9531 1099.5898,719.9531 L1099.5898,693.9531" fill="#E2E2F0" style="stroke:#181818;stroke-width:0.5;"/><path d="M1099.5898,693.9531 C1099.5898,703.9531 1117.5898,703.9531 1117.5898,703.9531 C1117.5898,703.9531 1135.5898,703.9531 1135.5898,693.9531" fill="none" style="stroke:#181818;stroke-width:0.5;"/></g><g class="participant participant-head" data-entity-uid="part6" data-qualified-name="GitHub" data-source-line="24" id="part6-head"><rect fill="#E2E8F0" height="30.2969" rx="2.5" ry="2.5" style="stroke:#475569;stroke-width:0.5;" width="122.2949" x="1202.8867" y="87.2969"/><text fill="#000000" font-family="DejaVu Sans" font-size="14" lengthAdjust="spacing" textLength="108.2949" x="1209.8867" y="107.292">GitHub Release</text></g><g class="participant participant-tail" data-entity-uid="part6" data-qualified-name="GitHub" data-source-line="24" id="part6-tail"><rect fill="#E2E8F0" height="30.2969" rx="2.5" ry="2.5" style="stroke:#475569;stroke-width:0.5;" width="122.2949" x="1202.8867" y="667.6563"/><text fill="#000000" font-family="DejaVu Sans" font-size="14" lengthAdjust="spacing" textLength="108.2949" x="1209.8867" y="687.6514">GitHub Release</text></g><g class="participant participant-head" data-entity-uid="part7" data-qualified-name="Registry" data-source-line="25" id="part7-head"><rect fill="#E2E8F0" height="30.2969" rx="2.5" ry="2.5" style="stroke:#475569;stroke-width:0.5;" width="74.334" x="1335.1816" y="87.2969"/><text fill="#000000" font-family="DejaVu Sans" font-size="14" lengthAdjust="spacing" textLength="60.334" x="1342.1816" y="107.292">crates.io</text></g><g class="participant participant-tail" data-entity-uid="part7" data-qualified-name="Registry" data-source-line="25" id="part7-tail"><rect fill="#E2E8F0" height="30.2969" rx="2.5" ry="2.5" style="stroke:#475569;stroke-width:0.5;" width="74.334" x="1335.1816" y="667.6563"/><text fill="#000000" font-family="DejaVu Sans" font-size="14" lengthAdjust="spacing" textLength="60.334" x="1342.1816" y="687.6514">crates.io</text></g><g><title>Local release gate</title><rect fill="#F1F5F9" height="71.2656" style="stroke:#181818;stroke-width:1;" width="10" x="295.3003" y="149.7266"/></g><g><title>GitHub Actions</title><rect fill="#F1F5F9" height="100.3984" style="stroke:#181818;stroke-width:1;" width="10" x="796.2651" y="279.2578"/></g><g class="message" data-entity-1="part1" data-entity-2="part2" data-source-line="27" id="msg1"><polygon fill="#334155" points="283.3003,145.7266,293.3003,149.7266,283.3003,153.7266,287.3003,149.7266" style="stroke:#334155;stroke-width:1;stroke-linejoin:miter;stroke-miterlimit:10;"/><line style="stroke:#334155;stroke-width:2;" x1="60.3105" x2="289.3003" y1="149.7266" y2="149.7266"/><text fill="#000000" font-family="DejaVu Sans" font-size="13" lengthAdjust="spacing" textLength="108.4434" x="67.3105" y="144.6606">verify-release.sh</text></g><g class="message" data-entity-1="part2" data-entity-2="part2" data-source-line="29" id="msg2"><line style="stroke:#334155;stroke-width:2;" x1="305.3003" x2="347.3003" y1="178.8594" y2="178.8594"/><line style="stroke:#334155;stroke-width:2;" x1="347.3003" x2="347.3003" y1="178.8594" y2="191.8594"/><line style="stroke:#334155;stroke-width:2;" x1="306.3003" x2="347.3003" y1="191.8594" y2="191.8594"/><polygon fill="#334155" points="316.3003,187.8594,306.3003,191.8594,316.3003,195.8594,312.3003,191.8594" style="stroke:#334155;stroke-width:1;stroke-linejoin:miter;stroke-miterlimit:10;"/><text fill="#000000" font-family="DejaVu Sans" font-size="13" lengthAdjust="spacing" textLength="345.2998" x="312.3003" y="173.7935">Rust + minimum version + proofs + docs + package</text></g><g class="message" data-entity-1="part2" data-entity-2="part1" data-source-line="30" id="msg3"><polygon fill="#334155" points="71.3105,216.9922,61.3105,220.9922,71.3105,224.9922,67.3105,220.9922" style="stroke:#334155;stroke-width:1;stroke-linejoin:miter;stroke-miterlimit:10;"/><line style="stroke:#334155;stroke-width:2;stroke-dasharray:2,2;" x1="65.3105" x2="299.3003" y1="220.9922" y2="220.9922"/><text fill="#000000" font-family="DejaVu Sans" font-size="13" lengthAdjust="spacing" textLength="210.9897" x="77.3105" y="215.9263">complete evidence or fail closed</text></g><g class="message" data-entity-1="part1" data-entity-2="part3" data-source-line="32" id="msg4"><polygon fill="#334155" points="667.6001,246.125,677.6001,250.125,667.6001,254.125,671.6001,250.125" style="stroke:#334155;stroke-width:1;stroke-linejoin:miter;stroke-miterlimit:10;"/><line style="stroke:#334155;stroke-width:2;" x1="60.3105" x2="673.6001" y1="250.125" y2="250.125"/><text fill="#000000" font-family="DejaVu Sans" font-size="13" lengthAdjust="spacing" textLength="225.7417" x="67.3105" y="245.0591">create exact v{Cargo version} tag</text></g><g class="message" data-entity-1="part1" data-entity-2="part4" data-source-line="33" id="msg5"><polygon fill="#334155" points="784.2651,275.2578,794.2651,279.2578,784.2651,283.2578,788.2651,279.2578" style="stroke:#334155;stroke-width:1;stroke-linejoin:miter;stroke-miterlimit:10;"/><line style="stroke:#334155;stroke-width:2;" x1="60.3105" x2="790.2651" y1="279.2578" y2="279.2578"/><text fill="#000000" font-family="DejaVu Sans" font-size="13" lengthAdjust="spacing" textLength="229.6646" x="67.3105" y="274.1919">dispatch validate-only on exact tag</text></g><g class="message" data-entity-1="part4" data-entity-2="part4" data-source-line="35" id="msg6"><line style="stroke:#334155;stroke-width:2;" x1="806.2651" x2="848.2651" y1="308.3906" y2="308.3906"/><line style="stroke:#334155;stroke-width:2;" x1="848.2651" x2="848.2651" y1="308.3906" y2="321.3906"/><line style="stroke:#334155;stroke-width:2;" x1="807.2651" x2="848.2651" y1="321.3906" y2="321.3906"/><polygon fill="#334155" points="817.2651,317.3906,807.2651,321.3906,817.2651,325.3906,813.2651,321.3906" style="stroke:#334155;stroke-width:1;stroke-linejoin:miter;stroke-miterlimit:10;"/><text fill="#000000" font-family="DejaVu Sans" font-size="13" lengthAdjust="spacing" textLength="282.3247" x="813.2651" y="303.3247">recheck exact tag, lockfile, Rust 1.85, Rocq</text></g><g class="message" data-entity-1="part4" data-entity-2="part5" data-source-line="36" id="msg7"><polygon fill="#334155" points="1105.5898,346.5234,1115.5898,350.5234,1105.5898,354.5234,1109.5898,350.5234" style="stroke:#334155;stroke-width:1;stroke-linejoin:miter;stroke-miterlimit:10;"/><line style="stroke:#334155;stroke-width:2;" x1="806.2651" x2="1111.5898" y1="350.5234" y2="350.5234"/><text fill="#000000" font-family="DejaVu Sans" font-size="13" lengthAdjust="spacing" textLength="275.3931" x="813.2651" y="345.4575">package and checksum immutable source</text></g><g class="message" data-entity-1="part4" data-entity-2="part1" data-source-line="37" id="msg8"><polygon fill="#334155" points="71.3105,375.6563,61.3105,379.6563,71.3105,383.6563,67.3105,379.6563" style="stroke:#334155;stroke-width:1;stroke-linejoin:miter;stroke-miterlimit:10;"/><line style="stroke:#334155;stroke-width:2;stroke-dasharray:2,2;" x1="65.3105" x2="800.2651" y1="379.6563" y2="379.6563"/><text fill="#000000" font-family="DejaVu Sans" font-size="13" lengthAdjust="spacing" textLength="165.1216" x="77.3105" y="374.5903">validated artifact identity</text></g><path d="M10,394.6563 L74.4429,394.6563 L74.4429,401.7891 L64.4429,411.7891 L10,411.7891 L10,394.6563" fill="#EEEEEE" style="stroke:#000000;stroke-width:1.5;"/><rect fill="none" height="206.7344" style="stroke:#000000;stroke-width:1.5;" width="1409.5156" x="10" y="394.6563"/><text fill="#000000" font-family="DejaVu Sans" font-size="13" font-weight="700" lengthAdjust="spacing" textLength="19.4429" x="25" y="407.7231">alt</text><text fill="#000000" font-family="DejaVu Sans" font-size="11" font-weight="700" lengthAdjust="spacing" textLength="176.9507" x="89.4429" y="406.8667">[Publish GitHub destination]</text><g class="message" data-entity-1="part1" data-entity-2="part4" data-source-line="41" id="msg9"><polygon fill="#334155" points="789.2651,428.9219,799.2651,432.9219,789.2651,436.9219,793.2651,432.9219" style="stroke:#334155;stroke-width:1;stroke-linejoin:miter;stroke-miterlimit:10;"/><line style="stroke:#334155;stroke-width:2;" x1="60.3105" x2="795.2651" y1="432.9219" y2="432.9219"/><text fill="#000000" font-family="DejaVu Sans" font-size="13" lengthAdjust="spacing" textLength="238.8496" x="67.3105" y="427.856">dispatch github-release on same tag</text></g><g class="message" data-entity-1="part4" data-entity-2="part6" data-source-line="42" id="msg10"><polygon fill="#334155" points="1252.0342,458.0547,1262.0342,462.0547,1252.0342,466.0547,1256.0342,462.0547" style="stroke:#334155;stroke-width:1;stroke-linejoin:miter;stroke-miterlimit:10;"/><line style="stroke:#334155;stroke-width:2;" x1="801.2651" x2="1258.0342" y1="462.0547" y2="462.0547"/><text fill="#000000" font-family="DejaVu Sans" font-size="13" lengthAdjust="spacing" textLength="227.2207" x="808.2651" y="456.9888">create only when release is absent</text></g><g class="message" data-entity-1="part6" data-entity-2="part1" data-source-line="43" id="msg11"><polygon fill="#334155" points="71.3105,487.1875,61.3105,491.1875,71.3105,495.1875,67.3105,491.1875" style="stroke:#334155;stroke-width:1;stroke-linejoin:miter;stroke-miterlimit:10;"/><line style="stroke:#334155;stroke-width:2;stroke-dasharray:2,2;" x1="65.3105" x2="1263.0342" y1="491.1875" y2="491.1875"/><text fill="#000000" font-family="DejaVu Sans" font-size="13" lengthAdjust="spacing" textLength="220.4541" x="77.3105" y="486.1216">read back tag, assets, checksums</text></g><line style="stroke:#000000;stroke-width:1;stroke-dasharray:2,2;" x1="10" x2="1419.5156" y1="500.1875" y2="500.1875"/><text fill="#000000" font-family="DejaVu Sans" font-size="11" font-weight="700" lengthAdjust="spacing" textLength="182.9126" x="15" y="510.3979">[Publish registry destination]</text><g class="message" data-entity-1="part1" data-entity-2="part4" data-source-line="45" id="msg12"><polygon fill="#334155" points="789.2651,531.125,799.2651,535.125,789.2651,539.125,793.2651,535.125" style="stroke:#334155;stroke-width:1;stroke-linejoin:miter;stroke-miterlimit:10;"/><line style="stroke:#334155;stroke-width:2;" x1="60.3105" x2="795.2651" y1="535.125" y2="535.125"/><text fill="#000000" font-family="DejaVu Sans" font-size="13" lengthAdjust="spacing" textLength="201.3604" x="67.3105" y="530.0591">dispatch crates-io on same tag</text></g><g class="message" data-entity-1="part4" data-entity-2="part7" data-source-line="46" id="msg13"><polygon fill="#334155" points="1360.3486,560.2578,1370.3486,564.2578,1360.3486,568.2578,1364.3486,564.2578" style="stroke:#334155;stroke-width:1;stroke-linejoin:miter;stroke-miterlimit:10;"/><line style="stroke:#334155;stroke-width:2;" x1="801.2651" x2="1366.3486" y1="564.2578" y2="564.2578"/><text fill="#000000" font-family="DejaVu Sans" font-size="13" lengthAdjust="spacing" textLength="232.5718" x="808.2651" y="559.1919">publish only when version is absent</text></g><g class="message" data-entity-1="part7" data-entity-2="part1" data-source-line="47" id="msg14"><polygon fill="#334155" points="71.3105,589.3906,61.3105,593.3906,71.3105,597.3906,67.3105,593.3906" style="stroke:#334155;stroke-width:1;stroke-linejoin:miter;stroke-miterlimit:10;"/><line style="stroke:#334155;stroke-width:2;stroke-dasharray:2,2;" x1="65.3105" x2="1371.3486" y1="593.3906" y2="593.3906"/><text fill="#000000" font-family="DejaVu Sans" font-size="13" lengthAdjust="spacing" textLength="214.792" x="77.3105" y="588.3247">read back version and checksum</text></g><path d="M637,613.3906 L637,653.3906 L1414,653.3906 L1414,623.3906 L1404,613.3906 L637,613.3906" fill="#FEF3C7" style="stroke:#181818;stroke-width:0.5;"/><path d="M1404,613.3906 L1404,623.3906 L1414,623.3906 L1404,613.3906" fill="#FEF3C7" style="stroke:#181818;stroke-width:0.5;"/><text fill="#000000" font-family="DejaVu Sans" font-size="13" lengthAdjust="spacing" textLength="277.0181" x="855.0527" y="630.4575">The tag and public version are immutable.</text><text fill="#000000" font-family="DejaVu Sans" font-size="13" lengthAdjust="spacing" textLength="332.2998" x="855.0527" y="645.5903">A correction requires a new Cargo version and tag.</text><?plantuml-src ZLHDJ-Cm4BtxLupWkBIYqDB2OQMIDcmbTeLOj7VNcIRU9dQmdNOhn7_VSRwQb1NQ0yNApBoPz-RPTYjLpWtFOCt5DZQwK56WKstWF9o5yp1Wjis8SCEBr8LQkHyyGrZWR_whW9zSsKwMJNYazrB5iE6fnKvaRepUr-3Nr-FHP78QV4cas2gq5gwwYFXQe188RmnWBfmszzf4Q6geqMAyNCpQq2cDnVro7Yuf_CIDaqBcNBbU_NWwcTpSdYISeYolbhFmaf8MtF4rjzY3k1nFPvDfD_fXYb4uNqueur5ky56gVltDU3gUtNUZ7vOn2YVXBNjdp4cN8goohA1MT4hbEjCcJwJDm62Ar1suYY0lrgaKz8b7VhMCSIyFVETIEVf3m_8ZNpXxr8AdBK3C7Pu1j_10XtxYyWy1mODqu7XSvhpmk9z2mM_5skz3QcNBd635ebeRE0iI55jRP1b684pJAZ0VUjL0pzLKrK3bftvQYM67KfSPpnXBwyo1iIDN67mjgTp13etS70OrqQ5Dl2voHx6Ag_yvPZyNri4NoAIIMP7vOakKw4jkjDvOEaHQ-7yvISpZffpgZxtlGEWiJv42k9DHwMHQn8RB54IgBKOimluG_S59NyAWHNg4KltTMy1Dh9jvtlqgJeg2rHr4qkRSYGHsF9KaFmwqIWz012eONzKsfWq5gwRIeF0xEkPTGAh5TYDJlAX46Grd4pfgyTgKcLAnMeZIWgBUCyZMhLONHc1PSY9ICsC4VhKRtzUBHNO_TFMXCHbF7JnvUzkazWEzJTP9nRtXw1fz8aKiNLAic_rxBQn_oxmK01MJ2hALlDHidw1gRuUqmDUMPgEIklyf6t_joYUr4ezRYyvUj8fOXlGsjYHCRTd_fr5PVY3rFnaqL-2kUWMemv54u-4kYIR_4nfDMNUl35N4cD9U98fxerwqKEVXChmEfkmbAMVhlaajbi6ZDOPiJXV5aFCyU-hyMaY3D2Get4FFxoKMOGxz0E3x_mK0?></g></svg>